HIERARCHY
ROOT Root
{
	OFFSET 0.00000 0.00000 0.00000
	CHANNELS 6 Xposition Yposition Zposition Zrotation Xrotation Yrotation
	JOINT Hips
	{
		OFFSET 0 0 0	
		CHANNELS 3 Zrotation Xrotation Yrotation
		JOINT Spine
		{
			OFFSET 0 4 0	
			CHANNELS 3 Zrotation Xrotation Yrotation
			JOINT Spine1
			{
				OFFSET 0 19.4 0	
				CHANNELS 3 Zrotation Xrotation Yrotation
				JOINT Spine2
				{
					OFFSET 0 16.6 0	
					CHANNELS 3 Zrotation Xrotation Yrotation
					JOINT LeftCollar
					{
						OFFSET 0 10 0	
						CHANNELS 3 Zrotation Xrotation Yrotation
						JOINT LeftArm
						{
							OFFSET 15.6 -2 3	
							CHANNELS 3 Zrotation Xrotation Yrotation
							JOINT LeftForeArm
							{
								OFFSET 3.5 -27 -1	
								CHANNELS 3 Zrotation Xrotation Yrotation
								JOINT LeftHand
								{
									OFFSET 1 -27 1	
									CHANNELS 3 Zrotation Xrotation Yrotation
									End Site
									{
										OFFSET 0 -15 0
									}
								}
							}
						}
					}
					JOINT RightCollar
					{
						OFFSET 0 10 0	
						CHANNELS 3 Zrotation Xrotation Yrotation
						JOINT RightArm
						{
							OFFSET -15.6 -2 3	
							CHANNELS 3 Zrotation Xrotation Yrotation
							JOINT RightForeArm
							{
								OFFSET -3.5 -27 -1	
								CHANNELS 3 Zrotation Xrotation Yrotation
								JOINT RightHand
								{
									OFFSET -1 -27 1	
									CHANNELS 3 Zrotation Xrotation Yrotation
									End Site
									{
										OFFSET 0 -15 0
									}
								}
							}
						}
					}
					JOINT Neck
					{
						OFFSET 0 10 0	
						CHANNELS 3 Zrotation Xrotation Yrotation
						JOINT Head
						{
							OFFSET 0 12.7 3	
							CHANNELS 3 Zrotation Xrotation Yrotation
							End Site
							{
								OFFSET 0 12.7 3
							}
						}
					}
				}
			}
		}
	}
	JOINT LeftHip
	{
		OFFSET 0 0 0	
		CHANNELS 3 Zrotation Xrotation Yrotation
		JOINT LeftUpLeg
		{
			OFFSET 8.8 -6 0	
			CHANNELS 3 Zrotation Xrotation Yrotation
			JOINT LeftLeg
			{
				OFFSET 0 -39 2	
				CHANNELS 3 Zrotation Xrotation Yrotation
				JOINT LeftFoot
				{
					OFFSET 0 -43 -2	
					CHANNELS 3 Zrotation Xrotation Yrotation
					JOINT LeftFootFront
					{
						OFFSET 0 -7 8.5	
						CHANNELS 3 Zrotation Xrotation Yrotation
						End Site
						{
							OFFSET 0 -0.5 9
						}
					}
				}
				JOINT LeftHeel
				{
					OFFSET 0 -43 -2	
					CHANNELS 3 Zrotation Xrotation Yrotation
					End Site
					{
						OFFSET 0 -7.5 -5
					}
				}
			}
		}
	}
	JOINT RightHip
	{
		OFFSET 0 0 0	
		CHANNELS 3 Zrotation Xrotation Yrotation
		JOINT RightUpLeg
		{
			OFFSET -8.8 -6 0	
			CHANNELS 3 Zrotation Xrotation Yrotation
			JOINT RightLeg
			{
				OFFSET 0 -39 2	
				CHANNELS 3 Zrotation Xrotation Yrotation
				JOINT RightFoot
				{
					OFFSET 0 -43 -2	
					CHANNELS 3 Zrotation Xrotation Yrotation
					JOINT RightFootFront
					{
						OFFSET 0 -7 8.5	
						CHANNELS 3 Zrotation Xrotation Yrotation
						End Site
						{
							OFFSET 0 -0.5 9
						}
					}
				}
				JOINT RightHeel
				{
					OFFSET 0 -43 -2	
					CHANNELS 3 Zrotation Xrotation Yrotation
					End Site
					{
						OFFSET 0 -7.5 -5
					}
				}
			}
		}
	}
}
MOTION
Frames: 17
Frame Time: 0.05
0 95.5 0 -0 0 -0 0.89332 -0.90187 -54.778 -1.2752 -0.72804 10.298 -1.2752 -0.72804 10.298 -1.0803 -0.59633 8.6514 -0 0 -0 0.28304 -1.6152 -33.626 3.1218 -0.41041 22.226 -3.8108 2.2949 -32.038 -0 0 -0 2.5807 -3.8233 2.4417 -0.67866 -1.1058 -15.496 -1.8597 -20.369 6.0566 -4.5879 -3.7097 7.122 -4.5879 -3.7097 7.122 -0 0 -0 -0 0 -0 -0 0 -0 -0 0 -0 -0 0 -0 -0 0 -0 -0 0 -0 -0 0 -0 -0 0 -0 -0 0 -0 -0 0 -0 -0 0 -0 
0 95.5 0 -0 0 -0 0.91226 -0.84592 -54.826 -1.383 -0.72959 10.364 -1.383 -0.72959 10.364 -1.1709 -0.59623 8.7067 -0 0 -0 0.48237 -1.5946 -33.7 3.0712 -0.36517 22.379 -3.7249 2.3735 -32.306 -0 0 -0 2.6931 -3.8449 2.3556 -0.64188 -1.2288 -15.486 -1.9655 -20.333 6.3014 -4.4445 -4.2203 6.7175 -4.4445 -4.2203 6.7175 -0 0 -0 -0 0 -0 -0 0 -0 -0 0 -0 -0 0 -0 -0 0 -0 -0 0 -0 -0 0 -0 -0 0 -0 -0 0 -0 -0 0 -0 -0 0 -0 
0 95.5 0 -0 0 -0 0.93088 -0.79832 -54.879 -1.4824 -0.73985 10.408 -1.4824 -0.73985 10.408 -1.2546 -0.60356 8.7442 -0 0 -0 0.66749 -1.5307 -33.79 2.9973 -0.25354 22.577 -3.6487 2.412 -32.538 -0 0 -0 2.8299 -3.9162 2.3421 -0.6205 -1.2678 -15.488 -2.0513 -20.373 6.4468 -4.3064 -4.772 6.3191 -4.3064 -4.772 6.3191 -0 0 -0 -0 0 -0 -0 0 -0 -0 0 -0 -0 0 -0 -0 0 -0 -0 0 -0 -0 0 -0 -0 0 -0 -0 0 -0 -0 0 -0 -0 0 -0 
0 95.5 0 -0 0 -0 0.95801 -0.81491 -54.979 -1.5804 -0.72829 10.431 -1.5804 -0.72829 10.431 -1.3368 -0.59261 8.7634 -0 0 -0 0.8235 -1.5414 -33.846 2.9222 -0.096746 22.762 -3.6333 2.4874 -32.671 -0 0 -0 2.9729 -4.0796 2.4292 -0.4947 -1.2999 -15.642 -2.1661 -20.439 6.5509 -4.1924 -5.3864 5.956 -4.1923 -5.3864 5.956 -0 0 -0 -0 0 -0 -0 0 -0 -0 0 -0 -0 0 -0 -0 0 -0 -0 0 -0 -0 0 -0 -0 0 -0 -0 0 -0 -0 0 -0 -0 0 -0 
0 95.5 0 -0 0 -0 0.95978 -0.87821 -55.096 -1.6446 -0.69459 10.409 -1.6446 -0.69459 10.409 -1.3903 -0.56355 8.7445 -0 0 -0 0.94148 -1.5875 -33.868 2.8761 0.094083 22.898 -3.669 2.5138 -32.661 -0 0 -0 3.0653 -4.2547 2.6397 -0.39951 -1.2641 -15.8 -2.2399 -20.565 6.5647 -4.1082 -6.0344 5.662 -4.1082 -6.0344 5.662 -0 0 -0 -0 0 -0 -0 0 -0 -0 0 -0 -0 0 -0 -0 0 -0 -0 0 -0 -0 0 -0 -0 0 -0 -0 0 -0 -0 0 -0 -0 0 -0 
0 95.5 0 -0 0 -0 0.96164 -0.95567 -55.225 -1.7034 -0.63278 10.315 -1.7034 -0.63278 10.315 -1.4389 -0.51108 8.6656 -0 0 -0 1.0777 -1.7513 -33.817 2.897 0.28285 22.95 -3.7134 2.4838 -32.498 -0 0 -0 3.2215 -4.5204 3.0272 -0.38821 -1.1464 -15.96 -2.2563 -20.731 6.587 -4.0067 -6.7104 5.4882 -4.0067 -6.7104 5.4882 -0 0 -0 -0 0 -0 -0 0 -0 -0 0 -0 -0 0 -0 -0 0 -0 -0 0 -0 -0 0 -0 -0 0 -0 -0 0 -0 -0 0 -0 -0 0 -0 
0 95.5 0 -0 0 -0 1.017 -1.0384 -55.338 -1.7081 -0.6362 10.282 -1.7081 -0.6362 10.282 -1.4429 -0.51396 8.6384 -0 0 -0 1.0828 -1.777 -34 2.9797 0.43228 22.925 -3.7739 2.4628 -32.289 -0 0 -0 3.3184 -4.6183 3.1287 -0.40445 -1.0282 -16.055 -2.2744 -20.879 6.6418 -3.941 -7.2121 5.2589 -3.941 -7.2121 5.2589 -0 0 -0 -0 0 -0 -0 0 -0 -0 0 -0 -0 0 -0 -0 0 -0 -0 0 -0 -0 0 -0 -0 0 -0 -0 0 -0 -0 0 -0 -0 0 -0 
0 95.5 0 -0 0 -0 1.0203 -1.1591 -55.45 -1.679 -0.61264 10.249 -1.679 -0.61264 10.249 -1.4181 -0.49458 8.6104 -0 0 -0 0.98206 -1.8466 -34.148 3.0991 0.51723 22.874 -3.7972 2.4511 -32.109 -0 0 -0 3.3478 -4.6805 3.119 -0.4447 -0.93181 -16.074 -2.2302 -21.003 6.699 -3.9168 -7.6589 5.0733 -3.9168 -7.6589 5.0733 -0 0 -0 -0 0 -0 -0 0 -0 -0 0 -0 -0 0 -0 -0 0 -0 -0 0 -0 -0 0 -0 -0 0 -0 -0 0 -0 -0 0 -0 -0 0 -0 
0 95.5 0 -0 0 -0 1.0264 -1.2348 -55.537 -1.5971 -0.63659 10.207 -1.5971 -0.63659 10.207 -1.3496 -0.51576 8.5753 -0 0 -0 0.81471 -1.8272 -34.238 3.1304 0.58841 22.849 -3.7247 2.2339 -32.26 -0 0 -0 3.3426 -4.6143 2.9977 -0.53126 -0.83563 -16.05 -2.1858 -21.08 6.5815 -3.9566 -7.9216 4.9823 -3.9566 -7.9216 4.9823 -0 0 -0 -0 0 -0 -0 0 -0 -0 0 -0 -0 0 -0 -0 0 -0 -0 0 -0 -0 0 -0 -0 0 -0 -0 0 -0 -0 0 -0 -0 0 -0 
0 95.5 0 -0 0 -0 1.0251 -1.3326 -55.604 -1.5228 -0.63005 10.148 -1.5228 -0.63005 10.148 -1.287 -0.51127 8.5256 -0 0 -0 0.63709 -1.8788 -34.25 3.1576 0.62054 22.837 -3.7465 2.2434 -32.205 -0 0 -0 3.3248 -4.5979 2.835 -0.55244 -0.75819 -15.933 -2.2932 -21.143 6.6142 -4.0154 -8.0897 4.9861 -4.0154 -8.0897 4.9861 -0 0 -0 -0 0 -0 -0 0 -0 -0 0 -0 -0 0 -0 -0 0 -0 -0 0 -0 -0 0 -0 -0 0 -0 -0 0 -0 -0 0 -0 -0 0 -0 
0 95.5 0 -0 0 -0 1.0218 -1.4078 -55.646 -1.439 -0.63069 10.098 -1.439 -0.63069 10.098 -1.2166 -0.51288 8.4836 -0 0 -0 0.45173 -1.9335 -34.294 3.1617 0.69769 22.864 -3.7762 2.2557 -32.161 -0 0 -0 3.2614 -4.5101 2.5814 -0.64282 -0.75822 -15.742 -2.3737 -21.14 6.6121 -4.098 -8.1555 5.0177 -4.098 -8.1555 5.0177 -0 0 -0 -0 0 -0 -0 0 -0 -0 0 -0 -0 0 -0 -0 0 -0 -0 0 -0 -0 0 -0 -0 0 -0 -0 0 -0 -0 0 -0 -0 0 -0 
0 95.5 0 -0 0 -0 1.0023 -1.4428 -55.674 -1.3331 -0.66315 10.043 -1.3331 -0.66315 10.043 -1.1279 -0.5415 8.4369 -0 0 -0 0.28125 -1.9488 -34.322 3.1092 0.84702 22.921 -3.7795 2.2293 -32.166 -0 0 -0 3.2891 -4.3277 2.0291 -0.8452 -0.73543 -15.251 -2.4554 -21.165 6.643 -4.1836 -8.1024 5.093 -4.1836 -8.1024 5.093 -0 0 -0 -0 0 -0 -0 0 -0 -0 0 -0 -0 0 -0 -0 0 -0 -0 0 -0 -0 0 -0 -0 0 -0 -0 0 -0 -0 0 -0 -0 0 -0 
0 95.5 0 -0 0 -0 1.0228 -1.5026 -55.723 -1.2571 -0.68728 10.023 -1.2571 -0.68728 10.023 -1.0643 -0.56269 8.4202 -0 0 -0 0.22939 -2.1573 -34.625 2.9264 1.1007 23.167 -3.835 2.2061 -32.191 -0 0 -0 3.1682 -4.1385 1.8532 -1.0078 -0.7432 -15.177 -2.4592 -21.152 6.6595 -4.278 -7.9912 5.1695 -4.278 -7.9912 5.1695 -0 0 -0 -0 0 -0 -0 0 -0 -0 0 -0 -0 0 -0 -0 0 -0 -0 0 -0 -0 0 -0 -0 0 -0 -0 0 -0 -0 0 -0 -0 0 -0 
0 95.5 0 -0 0 -0 1.041 -1.535 -55.768 -1.1844 -0.70519 10.005 -1.1844 -0.70519 10.005 -1.0034 -0.57862 8.4052 -0 0 -0 0.11625 -2.1339 -34.752 3.0068 1.1736 23.207 -3.9717 2.1484 -32.132 -0 0 -0 3.0306 -3.9927 1.739 -1.0754 -0.73743 -15.199 -2.5131 -21.132 6.7065 -4.3665 -7.848 5.2805 -4.3665 -7.848 5.2805 -0 0 -0 -0 0 -0 -0 0 -0 -0 0 -0 -0 0 -0 -0 0 -0 -0 0 -0 -0 0 -0 -0 0 -0 -0 0 -0 -0 0 -0 -0 0 -0 
0 95.5 0 -0 0 -0 1.0412 -1.6067 -55.807 -1.1325 -0.67851 9.9804 -1.1325 -0.67851 9.9804 -0.9595 -0.55685 8.3844 -0 0 -0 0.0068253 -2.1299 -34.834 3.1024 1.1521 23.21 -4.0988 2.1597 -32.032 -0 0 -0 2.9014 -3.8969 1.6931 -1.1339 -0.80251 -15.296 -2.5179 -21.057 6.7874 -4.4474 -7.7253 5.4325 -4.4474 -7.7253 5.4325 -0 0 -0 -0 0 -0 -0 0 -0 -0 0 -0 -0 0 -0 -0 0 -0 -0 0 -0 -0 0 -0 -0 0 -0 -0 0 -0 -0 0 -0 -0 0 -0 
0 95.5 0 -0 0 -0 1.0867 -1.6432 -55.811 -1.0907 -0.65731 9.9494 -1.0907 -0.65731 9.9494 -0.92409 -0.53956 8.3583 -0 0 -0 -0.093818 -2.1269 -34.903 3.1741 1.0656 23.203 -4.2307 2.2481 -31.966 -0 0 -0 2.779 -3.8099 1.6848 -1.1593 -0.89328 -15.444 -2.5177 -20.974 6.9254 -4.4997 -7.617 5.5742 -4.4997 -7.617 5.5742 -0 0 -0 -0 0 -0 -0 0 -0 -0 0 -0 -0 0 -0 -0 0 -0 -0 0 -0 -0 0 -0 -0 0 -0 -0 0 -0 -0 0 -0 -0 0 -0 
0 95.5 0 -0 0 -0 1.1062 -1.6905 -55.818 -1.0687 -0.59882 9.924 -1.0687 -0.59882 9.924 -0.90496 -0.4907 8.3369 -0 0 -0 -0.15014 -2.1859 -34.919 3.2367 0.93486 23.137 -4.3283 2.3864 -31.901 -0 0 -0 2.689 -3.8059 1.6939 -1.1903 -0.9859 -15.517 -2.5063 -20.874 7.0276 -4.5441 -7.577 5.6672 -4.5441 -7.577 5.6672 -0 0 -0 -0 0 -0 -0 0 -0 -0 0 -0 -0 0 -0 -0 0 -0 -0 0 -0 -0 0 -0 -0 0 -0 -0 0 -0 -0 0 -0 -0 0 -0 
